# AST/ASF file generated using VICON BodyLanguage
# -----------------------------------------------
:version 1.10
:name VICON
:units
  mass 1.0
  length 0.45
  angle deg
:documentation
   .ast/.asf automatically generated from VICON data using
   VICON BodyBuilder and BodyLanguage model FoxedUp or BRILLIANT.MOD
:root
   order TX TY TZ RX RY RZ
   axis XYZ
   position 0 0 0  
   orientation 0 -0 0 
:bonedata
  begin
     id 1 
     name lhipjoint
     direction 0.500677 -0.737119 0.453848 
     length 2.34727 
     axis 0 -0 0  XYZ
  end
  begin
     id 2 
     name lfemur
     direction 0.34202 -0.939693 0  
     length 7.53653  
     axis 0 -0 20  XYZ
    dof rx ry rz
    limits (-160.0 20.0)
           (-70.0 70.0)
           (-60.0 70.0)
  end
  begin
     id 3 
     name ltibia
     direction 0.34202 -0.939693 0   
     length 6.85572   
     axis 0 -0 20   XYZ
    dof rx
    limits (-10.0 170.0)
  end
  begin
     id 4 
     name lfoot
     direction 0.155313 -0.426718 0.890949   
     length 2.18324   
     axis -90 -1.13533e-015 20   XYZ
    dof rx rz
    limits (-45.0 90.0)
           (-70.0 20.0)
  end
  begin
     id 5 
     name ltoes
     direction 1.53474e-011 -4.21647e-011 1   
     length 1.06748   
     axis -90 -1.13533e-015 20   XYZ
    dof rx
    limits (-90.0 20.0)
  end
  begin
     id 6 
     name rhipjoint
     direction -0.632471 -0.659587 0.406111   
     length 2.62319  
     axis 0 -0 0  XYZ 
  end
  begin
     id 7 
     name rfemur
     direction -0.34202 -0.939693 0   
     length 7.21735   
     axis 0 -0 -20   XYZ
    dof rx ry rz
    limits (-160.0 20.0)
           (-70.0 70.0)
           (-70.0 60.0)
  end
  begin
     id 8 
     name rtibia
     direction -0.34202 -0.939693 0   
     length 7.02558   
     axis 0 -0 -20   XYZ
    dof rx
    limits (-10.0 170.0)
 end
 begin
     id 9 
     name rfoot
     direction -0.16057 -0.441164 0.882945   
     length 2.10014  
     axis -90 1.13533e-015 -20   XYZ
    dof rx rz
    limits (-45.0 90.0)
           (-20.0 70.0)
  end
  begin
     id 10 
     name rtoes
     direction -1.53553e-011 -4.2192e-011 1   
     length 1.02554   
     axis -90 1.13533e-015 -20   XYZ
    dof rx
    limits (-90.0 20.0)
  end
  begin
     id 11 
     name lowerback
     direction 0.0401429 0.998861 -0.0258085   
     length 1.80848   
     axis 0 -0 0   XYZ
    dof rx ry rz
    limits (-20.0 45.0)
           (-30.0 30.0)
           (-30.0 30.0)
  end
  begin
     id 12 
     name upperback
     direction -0.0130978 0.999914 -0.000352645   
     length 1.8116   
     axis 0 -0 0   XYZ
    dof rx ry rz
    limits (-20.0 45.0)
           (-30.0 30.0)
           (-30.0 30.0)
  end
  begin
     id 13 
     name thorax
     direction -0.0300198 0.999453 0.0138573   
     length 1.81778   
     axis 0 -0 0   XYZ
    dof rx ry rz
    limits (-20.0 45.0)
           (-30.0 30.0)
           (-30.0 30.0)
  end
  begin
     id 14 
     name lowerneck
     direction -0.0401726 0.999191 -0.00173647   
     length 2.10594   
     axis 0 -0 0   XYZ
    dof rx ry rz
    limits (-20.0 45.0)
           (-30.0 30.0)
           (-30.0 30.0)
  end
  begin
     id 15 
     name upperneck
     direction 0.0119835 0.998501 0.0534085   
     length 2.07325   
     axis 0 -0 0   XYZ
    dof rx ry rz
    limits (-20.0 45.0)
           (-30.0 30.0)
           (-30.0 30.0)
  end
  begin
     id 16
     name head
     direction 0.00628309 0.999826 0.0175921  
     length 2.15096  
     axis 0 -0 0   XYZ
    dof rx ry rz
    limits (-20.0 45.0)
           (-30.0 30.0)
           (-30.0 30.0)
  end
  begin
     id 17 
     name lclavicle
     direction 0.895501 0.429681 -0.115981  
     length 4.18092  
     axis 0 -0 0   XYZ
    dof ry rz
    limits (-20.0 10.0)
           (0.0 20.0)
  end
  begin
     id 18 
     name lhumerus
     direction 1 -4.48961e-011 -3.38433e-028   
     length 5.77237   
     axis 180 -30 -90   XYZ
    dof rx ry rz
    limits (-60.0 90.0)
           (-90.0 90.0)
           (-90.0 90.0)
  end
  begin
     id 19
     name lradius
     direction 1 -4.4901e-011 1.11983e-026   
     length 2.91878   
     axis 180 -30 -90   XYZ
    dof rx
    limits (-10.0 170.0)
  end
  begin
     id 20
     name lwrist
     direction 1 -4.48934e-011 1.88176e-026   
     length 1.45939   
     axis -1.23311e-014 90 90   XYZ
    dof ry
    limits (-180.0 0.0)
 end
  begin
     id 21 
     name lhand
     direction 1 -4.4895e-011 3.76352e-026   
     length 1.06566   
     axis -2.40147e-014 90 90   XYZ
    dof rx rz
    limits (-90.0 90.0)
           (-45.0 45.0)
  end
  begin
     id 22 
     name lfingers
     direction 1 -4.49005e-011 7.52705e-026   
     length 0.859162   
     axis -4.80295e-014 90 90   XYZ
    dof rx
    limits (0.0 90.0)
  end
  begin
     id 23
     name lthumb
     direction 0.707107 -6.34885e-011 0.707107   
     length 1.23359   
     axis -90 45 -9.86935e-015   XYZ
    dof rx rz
    limits (-45.0 45.0)
           (-45.0 45.0)
  end
  begin
     id 24 
     name rclavicle
     direction -0.91006 0.40451 -0.0903492   
     length 4.23293  
     axis 0 -0 0   XYZ 
    dof ry rz
    limits (-10.0 20.0)
           (-20.0 0.0)
  end
  begin
     id 25 
     name rhumerus
     direction -1 -4.4897e-011 1.7415e-027  
     length 5.49854   
     axis 180 30 90   XYZ
    dof rx ry rz
    limits (-90.0 60.0)
           (-90.0 90.0)
           (-90.0 90.0)
  end
  begin
     id 26 
     name rradius
     direction -1 -4.48963e-011 1.21259e-026   
     length 3.1186   
     axis 180 30 90   XYZ
    dof rx
    limits (-10.0 170.0)
  end
  begin
     id 27 
     name rwrist
     direction -1 -4.48967e-011 1.88176e-026   
     length 1.5593   
     axis -1.23311e-014 -90 -90   XYZ
    dof ry
    limits (-180.0 0.0)
  end
  begin
     id 28
     name rhand
     direction -1 -4.4895e-011 3.76352e-026   
     length 0.71207   
     axis -2.40147e-014 -90 -90   XYZ
    dof rx rz
    limits (-90.0 90.0)
           (-45.0 45.0)
  end
  begin
     id 29
     name rfingers
     direction -1 -4.49005e-011 7.52705e-026   
     length 0.574089   
     axis -4.80295e-014 -90 -90   XYZ
    dof rx
    limits (0.0 90.0)
  end
  begin
     id 30
     name rthumb
     direction -0.707107 -6.34982e-011 0.707107   
     length 0.824281   
     axis -90 -45 9.86935e-015   XYZ
    dof rx rz
    limits (-45.0 45.0)
           (-45.0 45.0)
  end
:hierarchy
  begin
    root lhipjoint rhipjoint lowerback
    lhipjoint lfemur
    lfemur ltibia
    ltibia lfoot
    lfoot ltoes
    rhipjoint rfemur
    rfemur rtibia
    rtibia rfoot
    rfoot rtoes
    lowerback upperback
    upperback thorax
    thorax lowerneck lclavicle rclavicle
    lowerneck upperneck
    upperneck head
    lclavicle lhumerus
    lhumerus lradius
    lradius lwrist
    lwrist lhand lthumb
    lhand lfingers
    rclavicle rhumerus
    rhumerus rradius
    rradius rwrist
    rwrist rhand rthumb
    rhand rfingers
  end

#!OML:ASF C:\ViconDB\ViconDB\414\Spring2016\042216\male.ASF
:FULLY-SPECIFIED
:DEGREES
68
root -18.8525 17.2629 14.4558 -198.223 71.5503 -205.996
lowerback 2.2663 -3.66282 5.61431
upperback 1.81384 -4.75306 0.0327508
thorax 0.147997 -2.31775 -2.9817
lowerneck 10.3386 7.08623 -0.821716
upperneck -21.148 12.5732 9.01812
head -8.99052 5.37045 1.73853
rclavicle -8.98507e-014 6.36111e-015
rhumerus -25.0277 -9.89186 -82.2616
rradius 33.3172
rwrist 27.4599
rhand 10.2095 -21.5914
rfingers 7.12502
rthumb 35.325 -48.071
lclavicle -8.98507e-014 6.36111e-015
lhumerus -32.5653 0.452365 96.2331
lradius 43.243
lwrist -1.92578
lhand -11.325 15.7667
lfingers 7.12502
lthumb 14.7074 45.225
rfemur -20.4017 12.0422 8.06432
rtibia 30.6899
rfoot -17.4307 -9.44033
rtoes -13.9164
lfemur -12.6184 -2.6165 -15.5804
ltibia 25.3238
lfoot -15.7766 11.2693
ltoes -16.7096
69
root -18.8448 17.2736 14.4833 -198.766 71.5249 -206.658
lowerback 2.33758 -3.66356 5.6345
upperback 1.78573 -4.74817 0.0259881
thorax 0.0774873 -2.31767 -2.99388
lowerneck 10.3703 7.15418 -0.891311
upperneck -21.0478 12.6414 9.0324
head -8.97095 5.4071 1.74575
rclavicle 1.66979e-014 2.54444e-014
rhumerus -24.9673 -10.3579 -82.0407
rradius 33.2789
rwrist 27.7217
rhand 9.82654 -21.6405
rfingers 7.12502
rthumb 34.9618 -48.2054
lclavicle 1.66979e-014 2.54444e-014
lhumerus -32.6792 0.298381 96.1992
lradius 43.2249
lwrist -1.86843
lhand -11.4272 15.9636
lfingers 7.12502
lthumb 14.609 45.4291
rfemur -20.4793 12.4798 7.89549
rtibia 30.6244
rfoot -17.478 -9.861
rtoes -13.8173
lfemur -12.7786 -2.77501 -15.9851
ltibia 25.325
lfoot -16.762 10.4448
ltoes -16.9929
70
root -18.8361 17.2789 14.5078 -199.634 71.5209 -207.62
lowerback 2.42309 -3.63799 5.50669
upperback 1.77415 -4.7106 0.0173689
thorax 0.030405 -2.30135 -2.9273
lowerneck 10.4206 7.14887 -0.711392
upperneck -20.9886 12.5707 8.72138
head -8.92118 5.38729 1.62202
rclavicle 1.63003e-014 0
rhumerus -24.974 -10.5068 -81.8181
rradius 33.3811
rwrist 27.4282
rhand 9.9061 -21.841
rfingers 7.12502
rthumb 35.0373 -48.3883
lclavicle 1.63003e-014 0
lhumerus -32.6921 0.324907 96.1137
lradius 43.0168
lwrist -2.1175
lhand -11.5946 16.0317
lfingers 7.12502
lthumb 14.4476 45.5088
rfemur -20.5064 12.7029 7.64413
rtibia 30.5011
rfoot -17.4542 -9.96672
rtoes -13.6888
lfemur -12.8595 -2.97433 -16.5508
ltibia 25.3751
lfoot -17.7281 9.86017
ltoes -17.8291
71
root -18.8209 17.2863 14.5273 -199.537 71.6344 -207.706
lowerback 2.26254 -3.61746 5.7411
upperback 1.72087 -4.6883 0.0993203
thorax 0.0560146 -2.28932 -2.98238
lowerneck 10.5345 7.20113 -0.733571
upperneck -20.9273 12.5667 8.50948
head -8.90587 5.40083 1.55259
rclavicle 8.15017e-014 4.13472e-014
rhumerus -24.9949 -10.5052 -81.6183
rradius 33.4499
rwrist 27.196
rhand 9.78603 -21.8495
rfingers 7.12502
rthumb 34.9234 -48.4235
lclavicle 8.15017e-014 4.13472e-014
lhumerus -32.7494 0.476817 96.064
lradius 42.7885
lwrist -2.22076
lhand -11.6202 16.0541
lfingers 7.12502
lthumb 14.423 45.5329
rfemur -20.6643 12.8525 7.70007
rtibia 30.4344
rfoot -17.4589 -10.0031
rtoes -13.7272
lfemur -13.0225 -3.26673 -16.7652
ltibia 25.3854
lfoot -18.5139 9.63773
ltoes -18.383
72
root -18.8069 17.2996 14.5482 -199.984 71.6953 -208.266
lowerback 2.20957 -3.62658 5.72987
upperback 1.73281 -4.70431 0.123979
thorax 0.0993374 -2.29589 -2.95439
lowerneck 10.508 7.28122 -0.627273
upperneck -20.8187 12.6175 8.2736
head -8.84182 5.44202 1.45487
rclavicle 1.03368e-014 -2.54444e-014
rhumerus -24.8832 -10.8083 -81.4499
rradius 33.4626
rwrist 27.1573
rhand 10.0459 -21.7789
rfingers 7.12502
rthumb 35.1699 -48.2951
lclavicle 1.03368e-014 -2.54444e-014
lhumerus -32.7508 0.712962 95.8933
lradius 42.6228
lwrist -2.3501
lhand -11.6608 16.0426
lfingers 7.12502
lthumb 14.3838 45.5242
rfemur -20.7484 12.9145 7.61755
rtibia 30.3978
rfoot -17.4775 -9.95602
rtoes -13.6341
lfemur -13.141 -3.37409 -17.1823
ltibia 25.3992
lfoot -19.0117 9.23718
ltoes -18.244
73
root -18.7948 17.302 14.5674 -200.146 71.7599 -208.546
lowerback 2.17776 -3.59641 5.84017
upperback 1.69212 -4.66394 0.119456
thorax 0.0701327 -2.27693 -3.02197
lowerneck 10.5233 7.30026 -0.416778
upperneck -20.6895 12.6036 8.05303
head -8.77012 5.443 1.35245
rclavicle -1.35174e-014 -1.90833e-014
rhumerus -24.9096 -11.1595 -81.299
rradius 33.4465
rwrist 27.1795
rhand 9.80119 -21.9219
rfingers 7.12502
rthumb 34.9377 -48.4925
lclavicle -1.35174e-014 -1.90833e-014
lhumerus -32.8237 0.601038 95.7423
lradius 42.4451
lwrist -2.24865
lhand -11.8231 16.1621
lfingers 7.12502
lthumb 14.2275 45.6548
rfemur -20.8711 13.0261 7.59669
rtibia 30.3802
rfoot -17.5238 -9.91913
rtoes -13.7596
lfemur -13.2405 -3.56662 -17.5151
ltibia 25.4404
lfoot -19.5789 9.16294
ltoes -18.6476
74
root -18.7831 17.302 14.5877 -200.5 71.8386 -208.994
lowerback 2.11368 -3.57501 5.85313
upperback 1.71625 -4.63987 0.152349
thorax 0.134854 -2.2623 -3.00163
lowerneck 10.4473 7.3483 -0.377904
upperneck -20.5726 12.6006 7.84005
head -8.69716 5.4639 1.28236
rclavicle 2.38542e-014 -4.29375e-014
rhumerus -24.8525 -11.3394 -81.1188
rradius 33.5079
rwrist 27.2217
rhand 10.0366 -21.837
rfingers 7.12502
rthumb 35.161 -48.3553
lclavicle 2.38542e-014 -4.29375e-014
lhumerus -32.7762 0.70031 95.6291
lradius 42.2212
lwrist -2.30237
lhand -11.8383 16.599
lfingers 7.12502
lthumb 14.2128 46.0928
rfemur -20.9824 13.0743 7.55188
rtibia 30.3921
rfoot -17.5185 -9.81429
rtoes -13.607
lfemur -13.2857 -4.03901 -17.8793
ltibia 25.4997
lfoot -20.1759 9.36573
ltoes -18.739
75
root -18.7693 17.303 14.6074 -200.669 71.9944 -209.248
lowerback 2.16971 -3.59008 5.84011
upperback 1.67364 -4.65495 0.184079
thorax 0.0617455 -2.27303 -2.9558
lowerneck 10.4129 7.4161 -0.273469
upperneck -20.4082 12.6536 7.71232
head -8.62114 5.4983 1.22244
rclavicle -6.67916e-014 -1.59028e-015
rhumerus -24.8226 -11.397 -81.1033
rradius 33.4919
rwrist 27.0152
rhand 9.99867 -21.8016
rfingers 7.12502
rthumb 35.1251 -48.3283
lclavicle -6.67916e-014 -1.59028e-015
lhumerus -32.8319 1.07803 95.3137
lradius 41.971
lwrist -2.51218
lhand -11.7369 16.6015
lfingers 7.12502
lthumb 14.3105 46.0884
rfemur -21.1293 12.991 7.63652
rtibia 30.4389
rfoot -17.4763 -9.60485
rtoes -13.4722
lfemur -13.3512 -3.87599 -18.1455
ltibia 25.5612
lfoot -20.7211 9.26087
ltoes -18.1292
76
root -18.7577 17.3084 14.6238 -201.014 72.124 -209.725
lowerback 2.17631 -3.58376 5.84684
upperback 1.61686 -4.64479 0.205311
thorax 0.0016797 -2.27116 -2.93538
lowerneck 10.3859 7.48008 -0.162636
upperneck -20.2845 12.6734 7.4505
head -8.5482 5.52691 1.12143
rclavicle 6.0033e-014 -2.54444e-014
rhumerus -24.8804 -11.2871 -81.0019
rradius 33.5815
rwrist 26.8905
rhand 9.96116 -21.9134
rfingers 7.12502
rthumb 35.0895 -48.4486
lclavicle 6.0033e-014 -2.54444e-014
lhumerus -32.8505 1.38055 95.0976
lradius 41.6187
lwrist -2.98054
lhand -11.7771 16.1749
lfingers 7.12502
lthumb 14.2718 45.6645
rfemur -21.3276 12.605 7.65925
rtibia 30.4739
rfoot -17.3687 -9.18832
rtoes -13.8609
lfemur -13.4975 -3.77537 -18.5398
ltibia 25.6636
lfoot -21.1212 9.61942
ltoes -18.0807
